<svg xmlns="http://www.w3.org/2000/svg" xmlns:xlink="http://www.w3.org/1999/xlink" width="1040" height="711.3"><rect width="1040" height="711.3" rx="5" ry="5" class="a"/><svg y="0%" x="0%"><circle cx="20" cy="20" r="6" fill="#ff5f58"/><circle cx="40" cy="20" r="6" fill="#ffbd2e"/><circle cx="60" cy="20" r="6" fill="#18c132"/></svg><svg height="651.3" viewBox="0 0 100 65.13" width="1000" x="15" xmlns="http://www.w3.org/2000/svg" xmlns:xlink="http://www.w3.org/1999/xlink" y="50"><style>.a{fill:#1e1f29}.f,.i,.j,.k{fill:#f8f8f2;white-space:pre}.i,.j,.k{fill:#af00ff}.j,.k{fill:#5f5fff}.k{fill:#00afff}.l,.m,.n,.p,.q,.r{fill:#00afd7;white-space:pre}.m,.n,.p,.q,.r{fill:#8700ff}.n,.p,.q,.r{fill:#875fff}.p,.q,.r{fill:#0087ff}.q,.r{fill:#00d7d7}.r{fill:#00d7af}</style><g font-family="Monaco,Consolas,Menlo,'Bitstream Vera Sans Mono','Powerline Symbols',monospace" font-size="1.67"><defs><symbol id="1"><text x="2.004" y="1.67" class="f">│</text></symbol><symbol id="2"><text x="2.004" y="1.67" class="f">│</text><text x="5.01" y="1.67" class="f">│</text></symbol><symbol id="3"><text x="5.01" y="1.67" class="f">│</text></symbol><symbol id="a"><path fill="transparent" d="M0 0h100v31H0z"/></symbol></defs><path class="a" d="M0 0h100v65.13H0z"/><svg width="100"><svg><use xlink:href="#a"/><text x="4.008" y="1.67" style="white-space:pre" fill="#af00d7">\</text><text x="10.02" y="1.67" class="i">|</text><text x="29.058" y="1.67" class="j">\</text><text x="32.064" y="1.67" class="j">|</text><text x="53.106" y="1.67" class="k">_</text><text x="54.108" y="1.67" class="l">)</text><text x="3.006" y="3.841" class="i">_</text><text x="5.01" y="3.841" class="i">\</text><text x="10.02" y="3.841" class="i">|</text><text x="14.028" y="3.841" class="m">_</text><text x="16.032" y="3.841" class="m">\</text><text x="18.036" y="3.841" class="m">\</text><text x="20.04" y="3.841" class="n">\</text><text x="23.046" y="3.841" class="j">/</text><text x="28.056" y="3.841" class="j">|\/</text><text x="32.064" y="3.841" style="white-space:pre" fill="#5f87ff">|</text><text x="36.072" y="3.841" class="p">_</text><text x="38.076" y="3.841" class="p">\</text><text x="43.086" y="3.841" class="k">__|</text><text x="49.098" y="3.841" class="k">__</text><text x="51.102" y="3.841" class="l">|</text><text x="54.108" y="3.841" class="q">|</text><text x="58.116" y="3.841" class="q">__|</text><text x="2.004" y="6.012" class="i">___</text><text x="6.012" y="6.012" class="i">\</text><text x="10.02" y="6.012" class="m">|</text><text x="14.028" y="6.012" class="m">__/</text><text x="19.038" y="6.012" class="j">`</text><text x="22.044" y="6.012" class="j">&lt;</text><text x="28.056" y="6.012" class="j">|</text><text x="32.064" y="6.012" class="p">|</text><text x="35.07" y="6.012" class="p">(</text><text x="39.078" y="6.012" class="k">|</text><text x="42.084" y="6.012" class="k">|</text><text x="48.096" y="6.012" class="l">|</text><text x="54.108" y="6.012" class="q">|</text><text x="56.112" y="6.012" class="q">\__</text><text x="60.12" y="6.012" class="r">\</text><text y="8.183" class="i">_/</text><text x="6.012" y="8.183" class="m">_\</text><text x="9.018" y="8.183" class="m">_|</text><text x="12.024" y="8.183" class="m">\_</text><text x="14.028" y="8.183" class="n">_</text><text x="15.03" y="8.183" class="j">_|</text><text x="19.038" y="8.183" class="j">_/\_\</text><text x="27.054" y="8.183" class="p">_|</text><text x="31.062" y="8.183" class="p">_|</text><text x="34.068" y="8.183" class="p">\_</text><text x="36.072" y="8.183" class="k">__/</text><text x="41.082" y="8.183" class="k">_|</text><text x="47.094" y="8.183" class="q">_|</text><text x="53.106" y="8.183" class="q">_|</text><text x="56.112" y="8.183" class="q">_</text><text x="57.114" y="8.183" class="r">_</text><text x="58.116" y="8.183" style="white-space:pre" fill="#00ffaf">__/</text><text x="2.004" y="16.867" class="f">┌Résumé-tldr.txt</text><use xlink:href="#1" y="17.368"/><text x="2.004" y="21.209" class="f">├─</text><text x="5.01" y="21.209" class="f">Network</text><text x="13.026" y="21.209" class="f">&amp;</text><text x="15.03" y="21.209" class="f">Systems</text><text x="23.046" y="21.209" class="f">Engineering:</text><use xlink:href="#2" y="21.71"/><text x="2.004" y="25.551" class="f">│</text><text x="5.01" y="25.551" class="f">├─</text><text x="8.016" y="25.551" class="f">Systems</text><text x="16.032" y="25.551" class="f">Engineering:</text><text x="2.004" y="27.722" class="f">│</text><text x="5.01" y="27.722" class="f">│</text><text x="8.016" y="27.722" class="f">├─</text><text x="11.022" y="27.722" class="f">LXC,</text><text x="16.032" y="27.722" class="f">LXD,</text><text x="21.042" y="27.722" class="f">KVM,</text><text x="26.052" y="27.722" class="f">Qemu,</text><text x="32.064" y="27.722" class="f">Docker.</text><text x="2.004" y="29.893" class="f">│</text><text x="5.01" y="29.893" class="f">│</text><text x="8.016" y="29.893" class="f">├─</text><text x="11.022" y="29.893" class="f">Bash</text><text x="16.032" y="29.893" class="f">Scripting</text><text x="26.052" y="29.893" class="f">&amp;</text><text x="28.056" y="29.893" class="f">Automation.</text><text x="2.004" y="32.064" class="f">│</text><text x="5.01" y="32.064" class="f">│</text><text x="8.016" y="32.064" class="f">└─</text><text x="11.022" y="32.064" class="f">Ansible,</text><text x="20.04" y="32.064" class="f">Terraform,</text><text x="31.062" y="32.064" class="f">&amp;</text><text x="33.066" y="32.064" class="f">Configuration</text><text x="47.094" y="32.064" class="f">Mgmt.</text><use xlink:href="#2" y="32.565"/><text x="2.004" y="36.406" class="f">│</text><text x="5.01" y="36.406" class="f">└─</text><text x="8.016" y="36.406" class="f">Network</text><text x="16.032" y="36.406" class="f">Engineering:</text><text x="2.004" y="38.577" class="f">│</text><text x="8.016" y="38.577" class="f">├─</text><text x="11.022" y="38.577" class="f">Cabling,</text><text x="20.04" y="38.577" class="f">Routing,</text><text x="29.058" y="38.577" class="f">Switching,</text><text x="40.08" y="38.577" class="f">Trunking,</text><text x="50.1" y="38.577" class="f">Subnetting,</text><text x="62.124" y="38.577" class="f">VPNs,</text><text x="68.136" y="38.577" class="f">DNS,</text><text x="73.146" y="38.577" class="f">DHCP.</text><text x="2.004" y="40.748" class="f">│</text><text x="8.016" y="40.748" class="f">└─</text><text x="11.022" y="40.748" class="f">Storage</text><text x="19.038" y="40.748" class="f">and</text><text x="23.046" y="40.748" class="f">Encryption:</text><text x="35.07" y="40.748" class="f">ZFS,</text><text x="40.08" y="40.748" class="f">LUKS,</text><text x="46.092" y="40.748" class="f">GELI,</text><text x="52.104" y="40.748" class="f">LVMs,</text><text x="58.116" y="40.748" class="f">Hot/Cold</text><text x="67.134" y="40.748" class="f">Storage.</text><use xlink:href="#1" y="41.249"/><text x="2.004" y="45.09" class="f">└─</text><text x="5.01" y="45.09" class="f">Activism</text><text x="14.028" y="45.09" class="f">&amp;</text><text x="16.032" y="45.09" class="f">Publications:</text><use xlink:href="#3" y="45.591"/><text x="5.01" y="49.432" class="f">├─</text><text x="8.016" y="49.432" class="f">Published</text><text x="18.036" y="49.432" class="f">in</text><text x="21.042" y="49.432" class="f">Winter</text><text x="28.056" y="49.432" class="f">2019/2020</text><text x="38.076" y="49.432" class="f">Issue</text><text x="44.088" y="49.432" class="f">of</text><text x="47.094" y="49.432" class="f">2600:</text><text x="53.106" y="49.432" class="f">The</text><text x="57.114" y="49.432" class="f">Hacker</text><text x="64.128" y="49.432" class="f">Quarterly.</text><text x="5.01" y="51.603" class="f">│</text><text x="8.016" y="51.603" class="f">└─</text><text x="11.022" y="51.603" class="f">Article</text><text x="19.038" y="51.603" class="f">covering</text><text x="28.056" y="51.603" class="f">my</text><text x="31.062" y="51.603" class="f">time</text><text x="36.072" y="51.603" class="f">in</text><text x="39.078" y="51.603" class="f">K12</text><text x="43.086" y="51.603" class="f">and</text><text x="47.094" y="51.603" class="f">experience</text><text x="58.116" y="51.603" class="f">with</text><text x="63.126" y="51.603" class="f">Student</text><text x="71.142" y="51.603" class="f">Privacy.</text><use xlink:href="#3" y="52.104"/><text x="5.01" y="55.945" class="f">├─</text><text x="8.016" y="55.945" class="f">Featured</text><text x="17.034" y="55.945" class="f">in</text><text x="20.04" y="55.945" class="f">EFF</text><text x="24.048" y="55.945" class="f">Case</text><text x="29.058" y="55.945" class="f">Study</text><text x="35.07" y="55.945" class="f">on</text><text x="38.076" y="55.945" class="f">K12</text><text x="42.084" y="55.945" class="f">Technology</text><text x="53.106" y="55.945" class="f">&amp;</text><text x="55.11" y="55.945" class="f">Student</text><text x="63.126" y="55.945" class="f">Privacy</text><text x="71.142" y="55.945" class="f">Issues.</text><use xlink:href="#3" y="56.446"/><text x="5.01" y="60.287" class="f">└─</text><text x="8.016" y="60.287" class="f">Spearheaded</text><text x="20.04" y="60.287" class="f">new</text><text x="24.048" y="60.287" class="f">NetSec</text><text x="31.062" y="60.287" class="f">Club</text><text x="36.072" y="60.287" class="f">&amp;</text><text x="38.076" y="60.287" class="f">Taught</text><text x="45.09" y="60.287" class="f">NetSec</text><text x="52.104" y="60.287" class="f">Fundamentals</text><text x="65.13" y="60.287" class="f">to</text><text x="68.136" y="60.287" class="f">Students.</text></svg></svg></g></svg></svg>
