<svg xmlns="http://www.w3.org/2000/svg" xmlns:xlink="http://www.w3.org/1999/xlink" width="1200" height="850"><rect width="780" height="850" rx="5" ry="5" class="a"/><svg y="0%" x="0%"><circle cx="20" cy="20" r="6" fill="#ff5f58"/><circle cx="40" cy="20" r="6" fill="#ffbd2e"/><circle cx="60" cy="20" r="6" fill="#18c132"/></svg><svg height="976.95" viewBox="0 0 75 97.695" width="750" x="17" xmlns="http://www.w3.org/2000/svg" xmlns:xlink="http://www.w3.org/1999/xlink" y="52"><style>.a{fill:#282a36}.f,.i,.j,.k{fill:#f8f8f2;white-space:pre}.i,.j,.k{fill:#af00ff}.j,.k{fill:#5f5fff}.k{fill:#00afff}.l,.m,.n,.p,.q,.r{fill:#00afd7;white-space:pre}.m,.n,.p,.q,.r{fill:#8700ff}.n,.p,.q,.r{fill:#875fff}.p,.q,.r{fill:#0087ff}.q,.r{fill:#00d7d7}.r{fill:#00d7af}</style><g font-family="Monaco,Consolas,Menlo,'Bitstream Vera Sans Mono','Powerline Symbols',monospace" font-size="1.67"><defs><symbol id="1"><text x="2.004" y="1.67" class="f">│</text></symbol><symbol id="2"><text x="2.004" y="1.67" class="f">│</text><text x="5.01" y="1.67" class="f">│</text></symbol><symbol id="a"><path fill="transparent" d="M0 0h75v46H0z"/></symbol></defs><path class="a" d="M0 0h75v97.695H0z"/><svg width="75"><svg><use xlink:href="#a"/><text x="4.008" y="6.012" style="white-space:pre" fill="#af00d7">\</text><text x="10.02" y="6.012" class="i">|</text><text x="29.058" y="6.012" class="j">\</text><text x="32.064" y="6.012" class="j">|</text><text x="53.106" y="6.012" class="k">_</text><text x="54.108" y="6.012" class="l">)</text><text x="3.006" y="8.183" class="i">_</text><text x="5.01" y="8.183" class="i">\</text><text x="10.02" y="8.183" class="i">|</text><text x="14.028" y="8.183" class="m">_</text><text x="16.032" y="8.183" class="m">\</text><text x="18.036" y="8.183" class="m">\</text><text x="20.04" y="8.183" class="n">\</text><text x="23.046" y="8.183" class="j">/</text><text x="28.056" y="8.183" class="j">|\/</text><text x="32.064" y="8.183" style="white-space:pre" fill="#5f87ff">|</text><text x="36.072" y="8.183" class="p">_</text><text x="38.076" y="8.183" class="p">\</text><text x="43.086" y="8.183" class="k">__|</text><text x="49.098" y="8.183" class="k">__</text><text x="51.102" y="8.183" class="l">|</text><text x="54.108" y="8.183" class="q">|</text><text x="58.116" y="8.183" class="q">__|</text><text x="2.004" y="10.354" class="i">___</text><text x="6.012" y="10.354" class="i">\</text><text x="10.02" y="10.354" class="m">|</text><text x="14.028" y="10.354" class="m">__/</text><text x="19.038" y="10.354" class="j">`</text><text x="22.044" y="10.354" class="j">&lt;</text><text x="28.056" y="10.354" class="j">|</text><text x="32.064" y="10.354" class="p">|</text><text x="35.07" y="10.354" class="p">(</text><text x="39.078" y="10.354" class="k">|</text><text x="42.084" y="10.354" class="k">|</text><text x="48.096" y="10.354" class="l">|</text><text x="54.108" y="10.354" class="q">|</text><text x="56.112" y="10.354" class="q">\__</text><text x="60.12" y="10.354" class="r">\</text><text y="12.525" class="i">_/</text><text x="6.012" y="12.525" class="m">_\</text><text x="9.018" y="12.525" class="m">_|</text><text x="12.024" y="12.525" class="m">\_</text><text x="14.028" y="12.525" class="n">_</text><text x="15.03" y="12.525" class="j">_|</text><text x="19.038" y="12.525" class="j">_/\_\</text><text x="27.054" y="12.525" class="p">_|</text><text x="31.062" y="12.525" class="p">_|</text><text x="34.068" y="12.525" class="p">\_</text><text x="36.072" y="12.525" class="k">__/</text><text x="41.082" y="12.525" class="k">_|</text><text x="47.094" y="12.525" class="q">_|</text><text x="53.106" y="12.525" class="q">_|</text><text x="56.112" y="12.525" class="q">_</text><text x="57.114" y="12.525" class="r">_</text><text x="58.116" y="12.525" style="white-space:pre" fill="#00ffaf">__/</text><text x="2.004" y="21.209" class="f">┌Résumé.txt</text><use xlink:href="#1" y="21.71"/><text x="2.004" y="25.551" class="f">├─</text><text x="5.01" y="25.551" class="f">Linux</text><text x="11.022" y="25.551" class="f">System</text><text x="18.036" y="25.551" class="f">Administration.</text><text x="2.004" y="27.722" class="f">│</text><text x="5.01" y="27.722" class="f">├─</text><text x="8.016" y="27.722" class="f">Bash</text><text x="13.026" y="27.722" class="f">Scripting</text><text x="23.046" y="27.722" class="f">&amp;</text><text x="25.05" y="27.722" class="f">Automation.</text><use xlink:href="#2" y="28.223"/><text x="2.004" y="32.064" class="f">│</text><text x="5.01" y="32.064" class="f">├─</text><text x="8.016" y="32.064" class="f">Virtualization.</text><text x="2.004" y="34.235" class="f">│</text><text x="5.01" y="34.235" class="f">│</text><text x="8.016" y="34.235" class="f">└─</text><text x="11.022" y="34.235" class="f">LXC,</text><text x="16.032" y="34.235" class="f">LXD,</text><text x="21.042" y="34.235" class="f">KVM,</text><text x="26.052" y="34.235" class="f">Qemu.</text><use xlink:href="#2" y="34.736"/><text x="2.004" y="38.577" class="f">│</text><text x="5.01" y="38.577" class="f">└─</text><text x="8.016" y="38.577" class="f">Storage</text><text x="16.032" y="38.577" class="f">Solutions.</text><text x="2.004" y="40.748" class="f">│</text><text x="8.016" y="40.748" class="f">└─</text><text x="11.022" y="40.748" class="f">ZFS,</text><text x="16.032" y="40.748" class="f">CEPH,</text><text x="22.044" y="40.748" class="f">LUKS,</text><text x="28.056" y="40.748" class="f">Hot/Cold</text><text x="37.074" y="40.748" class="f">Storage,</text><text x="46.092" y="40.748" class="f">RAID.</text><use xlink:href="#1" y="41.249"/><text x="2.004" y="45.09" class="f">├─</text><text x="5.01" y="45.09" class="f">Network</text><text x="13.026" y="45.09" class="f">Engineering.</text><text x="2.004" y="47.261" class="f">│</text><text x="5.01" y="47.261" class="f">├─</text><text x="8.016" y="47.261" class="f">Cabling,</text><text x="17.034" y="47.261" class="f">Routing,</text><text x="26.052" y="47.261" class="f">Switching,</text><text x="37.074" y="47.261" class="f">Trunking,</text><text x="47.094" y="47.261" class="f">Subnetting,</text><text x="59.118" y="47.261" class="f">VPNs,</text><text x="65.13" y="47.261" class="f">DNS,</text><text x="70.14" y="47.261" class="f">DHCP.</text><text x="2.004" y="49.432" class="f">│</text><text x="5.01" y="49.432" class="f">└─</text><text x="8.016" y="49.432" class="f">PCAP</text><text x="13.026" y="49.432" class="f">or</text><text x="16.032" y="49.432" class="f">it</text><text x="19.038" y="49.432" class="f">didn&apos;t</text><text x="26.052" y="49.432" class="f">happen.</text><use xlink:href="#1" y="49.933"/><text x="2.004" y="53.774" class="f">├─</text><text x="5.01" y="53.774" class="f">NetSec/Data</text><text x="17.034" y="53.774" class="f">Assurance</text><text x="2.004" y="55.945" class="f">│</text><text x="5.01" y="55.945" class="f">├─</text><text x="8.016" y="55.945" class="f">Enrolled</text><text x="17.034" y="55.945" class="f">in</text><text x="20.04" y="55.945" class="f">PWK/HTB.</text><text x="2.004" y="58.116" class="f">│</text><text x="5.01" y="58.116" class="f">└─</text><text x="8.016" y="58.116" class="f">Published</text><text x="18.036" y="58.116" class="f">in</text><text x="21.042" y="58.116" class="f">2600</text><text x="26.052" y="58.116" class="f">&amp;</text><text x="28.056" y="58.116" class="f">Featured</text><text x="37.074" y="58.116" class="f">in</text><text x="40.08" y="58.116" class="f">EFF</text><text x="44.088" y="58.116" class="f">Case</text><text x="49.098" y="58.116" class="f">Study</text><text x="55.11" y="58.116" class="f">on</text><text x="58.116" y="58.116" class="f">User</text><text x="63.126" y="58.116" class="f">Privacy.</text><use xlink:href="#1" y="58.617"/><text x="2.004" y="62.458" class="f">├─</text><text x="5.01" y="62.458" class="f">DevOps</text><text x="2.004" y="64.629" class="f">│</text><text x="5.01" y="64.629" class="f">└─</text><text x="8.016" y="64.629" class="f">Containerization</text><text x="25.05" y="64.629" class="f">/</text><text x="27.054" y="64.629" class="f">Orchestration</text><text x="2.004" y="66.8" class="f">│</text><text x="8.016" y="66.8" class="f">├─</text><text x="11.022" y="66.8" class="f">LXC,</text><text x="16.032" y="66.8" class="f">Docker,</text><text x="24.048" y="66.8" class="f">K8s.</text><text x="2.004" y="68.971" class="f">│</text><text x="8.016" y="68.971" class="f">└─</text><text x="11.022" y="68.971" class="f">Ansible,</text><text x="20.04" y="68.971" class="f">Terraform.</text><use xlink:href="#1" y="69.472"/><text x="2.004" y="73.313" class="f">└─</text><text x="5.01" y="73.313" class="f">Traditional</text><text x="17.034" y="73.313" class="f">Programmatic</text><text x="30.06" y="73.313" class="f">Work.</text><text x="5.01" y="75.484" class="f">└─</text><text x="8.016" y="75.484" class="f">Python,</text><text x="16.032" y="75.484" class="f">Ruby,</text><text x="22.044" y="75.484" class="f">Golang.</text></svg></svg></g></svg></svg>
